<svg width="20" height="20" viewBox="0 0 20 20" fill="none" xmlns="http://www.w3.org/2000/svg">
<path d="M8.75 15.7031C8.75 16.0346 8.8817 16.3526 9.11612 16.587C9.35054 16.8214 9.66848 16.9531 10 16.9531C10.3315 16.9531 10.6495 16.8214 10.8839 16.587C11.1183 16.3526 11.25 16.0346 11.25 15.7031C11.25 15.3716 11.1183 15.0537 10.8839 14.8192C10.6495 14.5848 10.3315 14.4531 10 14.4531C9.66848 14.4531 9.35054 14.5848 9.11612 14.8192C8.8817 15.0537 8.75 15.3716 8.75 15.7031ZM9.375 12.4219H10.625C10.7109 12.4219 10.7812 12.3516 10.7812 12.2656V3.20312C10.7812 3.11719 10.7109 3.04688 10.625 3.04688H9.375C9.28906 3.04688 9.21875 3.11719 9.21875 3.20312V12.2656C9.21875 12.3516 9.28906 12.4219 9.375 12.4219Z" fill="#FE6D64"/>
</svg>
