<svg width="10" height="10" viewBox="0 0 10 10" fill="none" xmlns="http://www.w3.org/2000/svg">
<path d="M5.75866 5L9.60388 0.416504C9.66833 0.340332 9.61413 0.224609 9.51452 0.224609H8.34558C8.27673 0.224609 8.21081 0.255371 8.1654 0.308105L4.99401 4.08887L1.82263 0.308105C1.77868 0.255371 1.71276 0.224609 1.64245 0.224609H0.473506C0.373897 0.224609 0.319697 0.340332 0.384151 0.416504L4.22937 5L0.384151 9.5835C0.369712 9.60048 0.36045 9.62124 0.357462 9.64333C0.354474 9.66541 0.357887 9.68789 0.367295 9.7081C0.376703 9.7283 0.391712 9.74538 0.410538 9.75731C0.429365 9.76924 0.451219 9.77551 0.473506 9.77539H1.64245C1.7113 9.77539 1.77722 9.74463 1.82263 9.69189L4.99401 5.91113L8.1654 9.69189C8.20935 9.74463 8.27526 9.77539 8.34558 9.77539H9.51452C9.61413 9.77539 9.66833 9.65967 9.60388 9.5835L5.75866 5Z" fill="#8F95B2"/>
</svg>
